<?xml version="1.0" encoding="UTF-8"?>
<svg id="Layer_1" data-name="Layer 1" xmlns="http://www.w3.org/2000/svg" viewBox="0 0 800 800">
  <defs>
    <style>
      .cls-1 {
        fill: #d17a34;
      }
    </style>
  </defs>
  <path class="cls-1" d="M417.85,455.56c1.31,1.56-9.44,18.13-10.35,19.65-29.09,48.94-76.27,88.84-135.19,91.77-40.17,2-84.27-10.22-115.29-36.59-61.07-51.92-83.81-138.17-45.49-210.3,12.25-23.06,30.07-43.24,52.21-57.22,36.3-22.93,80.22-37.53,123.46-31.03,42.14,6.33,77.6,34.55,103.67,67.05,17.02,21.22,26.77,43.31,36.01,68.63,10.44,28.62,20.89,57.24,31.33,85.85,9.57,26.21,19.13,52.42,28.7,78.64,10.2,27.94,19.39,55.98,41.12,77.36,20.45,20.12,47.76,30.61,76.19,22.83-11.95-30.34-23.91-60.67-35.86-91.01-22.18-56.3-44.37-112.59-66.55-168.89-6.54-16.6-13.08-33.19-19.62-49.79-7.11-18.04-12.77-36.87-22.71-53.64-10.43-17.6-25.48-32.16-40.51-45.81-59.95-54.44-148.78-75.17-226.83-53.96-3.57.97-7.11,2.05-10.62,3.21-42.01,13.84-77.22,40.85-105.86,74.13C21.58,309.24,4.21,400.79,30.68,479.31c20.08,59.56,65.73,108.73,122.61,135.04,32.78,15.16,68.55,24.34,104.77,24.73,45.3.49,89.7-14.64,129.3-35.78,4.22-2.25,8.38-4.64,12.44-7.17,8.68-5.4,16.98-11.48,24.46-18.46,4.9-4.57,17.31-14.82,18.26-21.82,0,0,8.28-61.08-24.66-100.29Z"/>
  <path class="cls-1" d="M509,319.84l28.45,53.98,49.38-80.34s-30.13-27.62-77.83,26.36Z"/>
  <path class="cls-1" d="M544.99,265.44s-32.64-16.32-23.85-54.82c8.79-38.5,1.26-48.89,1.26-48.89,0,0,89.13,20.02,52.31,100.36,0,0-8.49-42.61-23.07-48.51,0,0,3.82,40.14-6.64,51.85Z"/>
  <path class="cls-1" d="M604.22,261.26s15.25-42.68,69.23-36.82c0,0,60.46,17.16,108.06,3.77,0,0-8.89,58.58-81.28,86.2,0,0-67.37,21.34-87.04-9.21,0,0,20.09-35.15,73.65-32.43,0,0-4.97-30.34-82.62-11.51Z"/>
</svg>